<svg xml:space="preserve" style="enable-background:new 0 0 242.5 107.5;" viewBox="0 0 242.5 107.5" y="0px" x="0px" xmlns:xlink="http://www.w3.org/1999/xlink" xmlns="http://www.w3.org/2000/svg" id="Ebene_2_00000087370048296104019460000006477855194430169757_" version="1.1">
<style type="text/css">
	.st0{fill:#000000;}
</style>
<g id="Ebene_1-2">
	<g>
		<path d="M62.9,7C62.9,7,63,7,62.9,7C63,7,62.9,7,62.9,7z" class="st0"></path>
		<path d="M236.4,26c1.4-2.1,2.7-4.2,4.1-6.3c0.4-0.6,0.9-1.3,1.3-2c0.2-0.3,0.5-0.7,0.7-1c0,0,0.1-0.1,0.1-0.1
			c0.2-0.3-2.6-0.6-2.7-0.6c-2.1-0.2-4.2-0.3-6.3-0.3c-2.1,0-4.3,0-6.4,0.3c-0.7,0.1-2.2,0-2.6,0.6c-1.6,2.5-3.3,5.1-4.9,7.6
			c-2.4,3.7-4.8,7.4-7.2,11.1c-3.8-6.1-7.5-12.2-11.2-18.3c-1.3-2.1-2.6-4.2-3.9-6.3c-0.6-1-1.1-2.1-1.8-3c0,0-0.1-0.1-0.1-0.1
			C195,7.1,193,7.1,192.7,7c-2.1-0.2-4.3-0.3-6.4-0.3c-2.1,0-4.3,0-6.4,0.3c-0.2,0-2.8,0.4-2.6,0.6c1.6,2.5,3.1,5.1,4.7,7.7
			c3.7,6.1,7.5,12.2,11.2,18.2c2.9,4.7,5.8,9.4,8.7,14.2h-41c2.9-2.5,5.9-5.1,8.8-7.6c2.5-2.2,5-4.3,7.5-6.5
			c0.8-0.7,1.7-1.4,2.5-2.2c0.1-0.1,0.9-0.6,0.9-0.8c0-0.1-0.6-0.5-0.6-0.6c-0.6-0.5-1.2-1-1.8-1.5c-2-1.7-4-3.4-6-5.1
			c-5.3-4.6-10.7-9.2-16-13.7c-3.3-2.9-6.6-5.8-10-8.6c-0.1,0-0.1-0.1-0.1-0.1c-1.6-1.4-18.1-1.1-18,0c0.1,0.9,0.1,1.8,0.2,2.6
			c0.1,2.4,0.3,4.8,0.4,7.2c0.2,3.5,0.4,7.1,0.6,10.6c0.3,4.3,0.5,8.6,0.8,13c0.3,4.4,0.5,8.9,0.8,13.3h-21.4
			c0.6-1.1,1.3-2.2,1.9-3.2c2.3-3.9,4.6-7.8,6.9-11.7c1-1.7,2-3.3,3-5c0.3-0.6,0.7-1.1,1-1.7c0.2-0.3,0.5-0.6,0.6-0.9
			c0,0,0.1-0.1,0.1-0.1c-0.1-0.1-0.2-0.2-0.3-0.2c-4.1-2.7-8.2-5.4-12.3-8.1c-6.6-4.3-13.1-8.6-19.7-13c-1.5-1-3-2-4.5-3
			c-0.5-0.2-1.1-0.3-1.6-0.3c-0.8-0.1-1.7-0.2-2.5-0.2C80,0.1,78.1,0,76.2,0.1c-1.7,0-3.5,0-5.2,0.2c-0.4,0-2.7,0.2-2.6,0.6
			c0.1,2.8,0.2,5.5,0.4,8.3c0.3,6.6,0.6,13.2,0.9,19.8c0.3,6.2,0.5,12.4,0.8,18.7H41.7c-0.4,0-0.7,0-1.1,0c2.4-3.9,4.8-7.7,7.2-11.6
			c4-6.4,7.9-12.7,11.9-19.1l3.9-6.2c0.4-0.7,0.8-1.3,1.2-2c0.2-0.3,0.5-0.7,0.6-1c0,0,0.1-0.1,0.1-0.1C65.8,7.3,63,7,62.9,7
			c-1.7-0.2-3.4-0.2-5.1-0.2c-3.2,0-6.7-0.2-9.9,0.7c-4.7,1.2-9.4,2.4-14.1,3.6c-7.5,1.9-14.9,3.8-22.4,5.7C9.7,17.2,8,17.6,6.3,18
			c-0.1,0.1-0.2,0.2-0.3,0.2c0.7,3.6,1.5,7.2,2.2,10.8c0.1,0.5,0.2,1,0.3,1.5c0.1,0.5,2.7,0.6,2.6,0.6c2.1,0.2,4.3,0.3,6.4,0.3
			c0.7,0,9.2-0.2,9-0.9c-0.7-3.6-1.5-7.2-2.2-10.8c-0.1-0.5-0.2-0.9-0.3-1.4c4.6-1.2,9.2-2.3,13.7-3.5c2.1-0.5,4.2-1.1,6.2-1.6
			c-0.4,0.6-0.8,1.3-1.2,1.9c-3.8,6.1-7.6,12.2-11.4,18.2c-3,4.7-5.9,9.5-8.8,14.2c-2.2,0-4.5,0-6.7,0c-0.1,0-0.2,0-0.4,0
			c-1.2,0-6.7,0-6.7,1.9s5.8,1.9,6.7,1.9h4.7c-0.8,1.3-1.6,2.6-2.5,4c-4,6.4-7.9,12.7-11.9,19.1c-1.3,2.1-2.6,4.2-3.9,6.2
			c-0.4,0.7-0.8,1.3-1.2,2c-0.2,0.3-0.5,0.7-0.6,1c0,0-0.1,0.1-0.1,0.1c0.3,0.3,0.7,0.5,1.2,0.5c1.6,0.3,3.3,0.6,4.9,0.9
			c3.9,0.7,7.9,1.5,11.8,2.2l14.3,2.7c4.1,0.8,8.3,1.5,12.4,2.3c2,0.4,4,0.8,6,1.1c0,0,0.1,0,0.1,0c1.4,0.3,2.9,0.3,4.3,0.4
			c2,0.1,3.9,0.1,5.9,0.1c1.3,0,2.7-0.1,4-0.2c-0.2,0,2.7-0.2,2.6-0.6c-0.3-3.1-0.5-6.2-0.8-9.3c-0.4-5-0.9-9.9-1.3-14.9
			c-0.1-1.2-0.2-2.3-0.3-3.4c0-0.5-2.8-0.7-2.6-0.6c-2.1-0.2-4.3-0.3-6.4-0.3c-2.1,0-4.3,0-6.4,0.3c-0.3,0-2.7,0.2-2.6,0.6
			c0.3,3.1,0.5,6.2,0.8,9.3c0.4,4.9,0.8,9.8,1.3,14.7c-4.6-0.9-9.2-1.7-13.8-2.6c-4.1-0.8-8.3-1.5-12.4-2.3
			c-1.6-0.3-3.1-0.6-4.7-0.9c1.5-2.5,3.1-4.9,4.6-7.4c3.8-6.1,7.6-12.2,11.4-18.2c1.4-2.2,2.7-4.4,4.1-6.6h32.3c0,0.5,0,1,0.1,1.5
			c0.3,6.9,0.6,13.8,0.9,20.7c0.1,2.3,0.2,4.6,0.3,6.8c0,0.7,0.1,1.4,0.1,2.2c0,0.3,0,0.8,0.1,1.1c0,0,0,0.1,0,0.1
			c0,0.5,2.8,0.7,2.6,0.6c2.1,0.2,4.3,0.3,6.4,0.3c2.1,0,4.3,0,6.4-0.3c0.4,0,2.7-0.2,2.6-0.6c-0.1-2.8-0.2-5.5-0.4-8.3
			c-0.3-6.6-0.6-13.2-0.9-19.8c-0.1-1.4-0.1-2.9-0.2-4.3h17.2c-0.2,1.2-0.3,2.5-0.5,3.7c-0.6,4.5-1.2,9-1.9,13.6
			c-0.8,5.5-1.5,11-2.3,16.5c-0.7,4.7-1.3,9.5-2,14.2c-0.2,1.6-0.4,3.1-0.7,4.7c-0.1,0.5-0.1,1-0.2,1.5c0,0.2-0.1,0.5-0.1,0.8
			c0,0,0,0.1,0,0.1c-0.1,0.9,8.3,0.9,9,0.9c2.1,0,4.3,0,6.4-0.3c0.4-0.1,2.6-0.1,2.6-0.6c0.3-1.9,0.5-3.8,0.8-5.7
			c0.6-4.5,1.2-9,1.9-13.6c0.8-5.5,1.5-11,2.3-16.5c0.7-4.7,1.3-9.5,2-14.2c0.2-1.6,0.4-3.1,0.7-4.7c0-0.1,0-0.3,0.1-0.4h7.2
			c0.2,3.8,0.5,7.6,0.7,11.5c0.3,4.5,0.5,8.9,0.8,13.4c0.2,3.8,0.4,7.5,0.7,11.3c0.2,2.7,0.3,5.4,0.5,8.1c0.1,0.8,0.1,1.7,0.1,2.5
			c0,0.4,0,0.9,0.1,1.3c0,0.1,0,0.1,0,0.2c0,0,0,0.1,0,0.1c0.3,0.4,2.7,0.6,2.6,0.6c0,0,0.1,0,0.1,0c2.1,0.2,4.2,0.3,6.3,0.3
			c2.1,0,4.3,0,6.4-0.3c0.5-0.1,1.5-0.1,2.1-0.3c0.3-0.1,0.5-0.2,0.5-0.3c1.3-1.7,2.6-3.3,3.9-5c3.1-4,6.3-8,9.5-12
			c3.8-4.8,7.6-9.7,11.4-14.5c3.3-4.2,6.6-8.4,9.9-12.5c1.1-1.4,2.2-2.8,3.2-4.1c0,0,0.1-0.1,0.1-0.1h11.8
			c-2.8,4.4-5.7,8.7-8.5,13.1c-4.1,6.4-8.3,12.8-12.4,19.1c-1.4,2.1-2.7,4.2-4.1,6.3c-0.4,0.7-0.9,1.3-1.3,1.9
			c-0.2,0.3-0.5,0.7-0.7,1c0,0-0.1,0.1-0.1,0.1c-0.2,0.3,2.6,0.6,2.7,0.6c2.1,0.2,4.2,0.3,6.3,0.3c2.1,0,4.3,0,6.4-0.3
			c0.7-0.1,2.2,0,2.6-0.6c1.6-2.5,3.3-5.1,4.9-7.6c4-6.1,7.9-12.2,11.9-18.3c0.7-1.1,1.5-2.2,2.2-3.4c2.2,3.6,4.4,7.1,6.6,10.7
			c1.3,2.1,2.6,4.2,3.9,6.3c0.6,1,1.1,2.1,1.8,3c0,0,0.1,0.1,0.1,0.1c0.3,0.5,2.3,0.6,2.6,0.6c2.1,0.2,4.3,0.3,6.4,0.3
			c2.1,0,4.3,0,6.4-0.3c0.2,0,2.8-0.4,2.6-0.6c-1.6-2.6-3.1-5.1-4.7-7.7c-3.7-6.1-7.5-12.2-11.2-18.2c-1.3-2.2-2.6-4.3-4-6.5
			c1.8,0,3.6,0,5.4,0c0.1,0,0.2,0,0.4,0c1.2,0,6.7,0,6.7-1.9s-5.8-1.9-6.7-1.9h-5.8c0.6-0.9,1.1-1.7,1.7-2.6
			C228.2,38.8,232.3,32.4,236.4,26L236.4,26z M159,27.5c0.7,0.6,1.5,1.3,2.2,1.9c0.4,0.3,0.9,0.7,1.2,1c0.2,0.2,0.2,0.1-0.1,0.4
			c-0.6,0.5-1.2,1-1.8,1.6c-2.3,2-4.6,4-6.9,6c-1.7,1.5-3.4,2.9-5.1,4.4c-0.1-1.7-0.2-3.3-0.3-5c-0.3-4.5-0.5-8.9-0.8-13.4
			c-0.1-2.4-0.3-4.8-0.4-7.2c1.8,1.5,3.6,3.1,5.4,4.6C154.6,23.8,156.8,25.6,159,27.5L159,27.5z M87.8,31.9
			c-0.3-6.2-0.5-12.4-0.8-18.6c4.6,3,9.2,6.1,13.8,9.1c1.4,0.9,2.8,1.8,4.1,2.7c-1.6,2.8-3.3,5.5-4.9,8.3c-2.6,4.4-5.2,8.8-7.9,13.2
			l-0.7,1.1h-3C88.2,42.4,88,37.1,87.8,31.9z M169.6,54.6c-3.1,4-6.3,8-9.5,12c-3.1,4-6.3,8-9.4,12c-0.2-4.1-0.5-8.1-0.7-12.2
			c-0.3-4.8-0.6-9.5-0.9-14.3c0-0.2,0-0.4,0-0.6H172C171.2,52.6,170.4,53.6,169.6,54.6L169.6,54.6z" class="st0"></path>
		<path d="M177.4,93.8C177.4,93.8,177.4,93.8,177.4,93.8C177.5,93.8,177.5,93.8,177.4,93.8z" class="st0"></path>
		<path d="M239.9,16C239.9,16,239.9,16,239.9,16C239.9,16,239.8,16,239.9,16z" class="st0"></path>
	</g>
</g>
</svg>
